<?xml version="1.0" encoding="utf-8"?>
<!-- Generator: Adobe Illustrator 26.2.1, SVG Export Plug-In . SVG Version: 6.00 Build 0)  -->
<svg version="1.1" id="Layer_1" xmlns="http://www.w3.org/2000/svg" xmlns:xlink="http://www.w3.org/1999/xlink" x="0px" y="0px"
	 viewBox="0 0 61 61" style="enable-background:new 0 0 61 61;" xml:space="preserve">
<style type="text/css">
	.st0{fill:#FFFFFF;}
	.st1{fill:#054B78;}
	.st2{display:none;}
	.st3{display:inline;}
</style>
<g id="background_circle">
	<circle class="st0" cx="30.42" cy="30.39" r="30"/>
</g>
<g id="blog">
	<g>
		<path class="st1" d="M49.97,15.15h-37.1c-1.23,0-2.24,1-2.24,2.24v23.44c0,1.23,1,2.24,2.24,2.24h4.97v7.9
			c0,0.55,0.33,1.04,0.85,1.24c0.16,0.06,0.32,0.09,0.49,0.09c0.37,0,0.72-0.15,0.98-0.44l8.04-8.8h21.78c1.23,0,2.24-1,2.24-2.24
			V17.39C52.21,16.15,51.21,15.15,49.97,15.15z M51,40.83c0,0.57-0.46,1.03-1.03,1.03H27.92c-0.17,0-0.33,0.07-0.45,0.2l-8.22,9
			c-0.01,0.02-0.06,0.06-0.13,0.03c-0.08-0.03-0.08-0.09-0.08-0.11v-8.51c0-0.33-0.27-0.61-0.61-0.61h-5.57
			c-0.57,0-1.03-0.46-1.03-1.03V17.39c0-0.57,0.46-1.03,1.03-1.03h37.11c0.57,0,1.03,0.46,1.03,1.03V40.83z"/>
		<path class="st1" d="M45.35,23.2H19.07c-0.33,0-0.61,0.27-0.61,0.61c0,0.33,0.27,0.61,0.61,0.61h26.28c0.33,0,0.61-0.27,0.61-0.61
			C45.96,23.47,45.69,23.2,45.35,23.2z"/>
		<path class="st1" d="M38.68,28.5h-19.6c-0.33,0-0.61,0.27-0.61,0.61c0,0.33,0.27,0.61,0.61,0.61h19.6c0.33,0,0.61-0.27,0.61-0.61
			C39.28,28.77,39.01,28.5,38.68,28.5z"/>
		<path class="st1" d="M30.1,33.8H19.07c-0.33,0-0.61,0.27-0.61,0.61c0,0.33,0.27,0.61,0.61,0.61H30.1c0.33,0,0.61-0.27,0.61-0.61
			C30.7,34.07,30.43,33.8,30.1,33.8z"/>
	</g>
</g>
<g id="news" class="st2">
	<g class="st3">
		<path class="st0" d="M16.69,23.73c0-0.4,0.33-0.73,0.73-0.73s0.73,0.33,0.73,0.73v2.43v6.39c0,3.37,1.38,6.44,3.6,8.66
			s5.29,3.6,8.66,3.6l0,0c3.37,0,6.44-1.38,8.66-3.6c2.22-2.22,3.6-5.29,3.6-8.66v-6.71v-2.11c0-0.4,0.33-0.73,0.73-0.73
			c0.4,0,0.73,0.33,0.73,0.73v2.11v6.71c0,3.78-1.54,7.21-4.03,9.7c-2.49,2.49-5.92,4.03-9.7,4.03l0,0c-3.78,0-7.21-1.54-9.7-4.03
			c-2.49-2.49-4.03-5.92-4.03-9.7v-6.39v-2.43H16.69z"/>
		<path class="st0" d="M30.42,5.12c2.43,0,4.64,0.99,6.24,2.6c1.6,1.6,2.6,3.81,2.6,6.24v18.59c0,2.43-0.99,4.64-2.6,6.24
			c-1.6,1.6-3.81,2.6-6.24,2.6l0,0c-2.13,0-4.09-0.76-5.62-2.03c-1.56-1.29-2.67-3.09-3.06-5.15c-0.05-0.26-0.09-0.54-0.12-0.83
			s-0.04-0.57-0.04-0.84V13.95c0-2.43,0.99-4.64,2.6-6.24C25.78,6.11,27.99,5.12,30.42,5.12L30.42,5.12L30.42,5.12z M25.21,8.75
			c-1.34,1.34-2.17,3.18-2.17,5.21v18.59c0,0.25,0.01,0.49,0.03,0.7c0.02,0.22,0.06,0.46,0.1,0.69c0.33,1.71,1.26,3.22,2.56,4.3
			c1.28,1.05,2.91,1.69,4.68,1.69l0,0c2.03,0,3.87-0.83,5.21-2.17s2.17-3.18,2.17-5.21v-18.6c0-2.03-0.83-3.87-2.17-5.21
			c-1.34-1.34-3.18-2.17-5.21-2.17l0,0C28.39,6.58,26.55,7.41,25.21,8.75z"/>
		<path class="st0" d="M27.69,45.47c0-0.4,0.33-0.73,0.73-0.73s0.73,0.33,0.73,0.73v4.99h2.53v-4.99c0-0.4,0.33-0.73,0.73-0.73
			c0.4,0,0.73,0.33,0.73,0.73v5.72c0,0.4-0.33,0.73-0.73,0.73h-3.99c-0.4,0-0.73-0.33-0.73-0.73V45.47z"/>
		<path class="st0" d="M38.06,50.45c0.4,0,0.73,0.33,0.73,0.73v3.76c0,0.4-0.33,0.73-0.73,0.73H22.78c-0.4,0-0.73-0.33-0.73-0.73
			v-3.76c0-0.4,0.33-0.73,0.73-0.73H38.06L38.06,50.45z M23.52,54.21h13.81v-2.29H23.52V54.21z"/>
		<path class="st0" d="M38.53,16.1c0.4,0,0.73,0.33,0.73,0.73s-0.33,0.73-0.73,0.73h-4.15c-0.4,0-0.73-0.33-0.73-0.73
			s0.33-0.73,0.73-0.73H38.53z"/>
		<path class="st0" d="M38.53,19.31c0.4,0,0.73,0.33,0.73,0.73s-0.33,0.73-0.73,0.73h-4.15c-0.4,0-0.73-0.33-0.73-0.73
			s0.33-0.73,0.73-0.73H38.53z"/>
		<path class="st0" d="M38.53,22.52c0.4,0,0.73,0.33,0.73,0.73s-0.33,0.73-0.73,0.73h-4.15c-0.4,0-0.73-0.33-0.73-0.73
			s0.33-0.73,0.73-0.73H38.53z"/>
		<path class="st0" d="M38.53,25.73c0.4,0,0.73,0.33,0.73,0.73s-0.33,0.73-0.73,0.73h-4.15c-0.4,0-0.73-0.33-0.73-0.73
			s0.33-0.73,0.73-0.73H38.53z"/>
		<path class="st0" d="M38.53,28.94c0.4,0,0.73,0.33,0.73,0.73s-0.33,0.73-0.73,0.73h-4.15c-0.4,0-0.73-0.33-0.73-0.73
			s0.33-0.73,0.73-0.73H38.53z"/>
	</g>
</g>
</svg>
