<?xml version="1.0" encoding="utf-8"?>
<!-- Generator: Adobe Illustrator 26.1.0, SVG Export Plug-In . SVG Version: 6.00 Build 0)  -->
<svg version="1.1" id="Layer_1" xmlns="http://www.w3.org/2000/svg" xmlns:xlink="http://www.w3.org/1999/xlink" x="0px" y="0px"
	 viewBox="0 0 361 93" style="enable-background:new 0 0 361 93;" xml:space="preserve">
<style type="text/css">
	.st0{fill:#FFFFFF;}
	.st1{clip-path:url(#SVGID_00000077301791940429335360000012118652167760489860_);fill:#FFFFFF;}
	.st2{clip-path:url(#SVGID_00000064327802667823975890000018194349368795768766_);fill:#FFFFFF;}
	.st3{clip-path:url(#SVGID_00000171709536221751499280000006869716799362946190_);fill:#FFFFFF;}
	.st4{clip-path:url(#SVGID_00000012456391102269030820000003409229263054147739_);fill:#FFFFFF;}
	.st5{clip-path:url(#SVGID_00000108266813610215183170000007888005465910618261_);fill:#FFFFFF;}
	.st6{clip-path:url(#SVGID_00000164495316719402622270000007797729792854521499_);fill:#FFFFFF;}
	.st7{clip-path:url(#SVGID_00000142155560878653533670000006344186126820258749_);fill:#FFFFFF;}
</style>
<g>
	<g>
		<rect id="SVGID_1_" x="30.17" y="88.6" class="st0" width="64.12" height="3.18"/>
	</g>
	<g>
		<defs>
			<rect id="SVGID_00000113352498370561019410000013793559610856025738_" x="30.17" y="88.6" width="64.12" height="3.18"/>
		</defs>
		<clipPath id="SVGID_00000080181149388521940330000010991334974506805660_">
			<use xlink:href="#SVGID_00000113352498370561019410000013793559610856025738_"  style="overflow:visible;"/>
		</clipPath>
		
			<rect x="30.17" y="88.6" style="clip-path:url(#SVGID_00000080181149388521940330000010991334974506805660_);fill:#FFFFFF;" width="64.12" height="3.18"/>
	</g>
</g>
<g>
	<g>
		<path id="SVGID_00000175282575836403123640000013429080662889912507_" class="st0" d="M50.17,76.51c0,5.54,5.35,10.02,11.95,10.02
			s11.95-4.49,11.95-10.02C74.07,76.5,50.17,76.5,50.17,76.51z"/>
	</g>
	<g>
		<defs>
			<path id="SVGID_00000062174516635237382900000015975695266876802983_" d="M50.17,76.51c0,5.54,5.35,10.02,11.95,10.02
				s11.95-4.49,11.95-10.02C74.07,76.5,50.17,76.5,50.17,76.51z"/>
		</defs>
		<clipPath id="SVGID_00000114050031122690122610000008718626677157692091_">
			<use xlink:href="#SVGID_00000062174516635237382900000015975695266876802983_"  style="overflow:visible;"/>
		</clipPath>
		
			<rect x="50.17" y="76.51" style="clip-path:url(#SVGID_00000114050031122690122610000008718626677157692091_);fill:#FFFFFF;" width="23.9" height="10.02"/>
	</g>
</g>
<g>
	<g>
		<path id="SVGID_00000090998335865882936840000008466721105043815351_" class="st0" d="M6.32,11.7l-3.87,0.13l0.94,2.52
			c2.87,7.67,7.9,14.84,14.65,20.91c1.67,1.53,3.48,2.96,5.35,4.36c1.89,1.37,3.86,2.68,5.91,3.91c4.11,2.45,8.53,4.6,13.17,6.41
			c-4.39-2.12-8.46-4.54-12.17-7.21c-1.84-1.34-3.59-2.75-5.24-4.2c-1.63-1.47-3.18-2.97-4.6-4.55c-5.7-6.26-8.73-10.54-10.45-17.8
			l17.43,0.6c-0.55-1.83-1.04-3.75-1.48-5.76L6.32,11.7z"/>
	</g>
	<g>
		<defs>
			<path id="SVGID_00000021810742589489847010000015704134633778045618_" d="M6.32,11.7l-3.87,0.13l0.94,2.52
				c2.87,7.67,7.9,14.84,14.65,20.91c1.67,1.53,3.48,2.96,5.35,4.36c1.89,1.37,3.86,2.68,5.91,3.91c4.11,2.45,8.53,4.6,13.17,6.41
				c-4.39-2.12-8.46-4.54-12.17-7.21c-1.84-1.34-3.59-2.75-5.24-4.2c-1.63-1.47-3.18-2.97-4.6-4.55c-5.7-6.26-8.73-10.54-10.45-17.8
				l17.43,0.6c-0.55-1.83-1.04-3.75-1.48-5.76L6.32,11.7z"/>
		</defs>
		<clipPath id="SVGID_00000122705238567108710860000000121712998897853082_">
			<use xlink:href="#SVGID_00000021810742589489847010000015704134633778045618_"  style="overflow:visible;"/>
		</clipPath>
		
			<rect x="2.45" y="11.03" style="clip-path:url(#SVGID_00000122705238567108710860000000121712998897853082_);fill:#FFFFFF;" width="40.02" height="38.92"/>
	</g>
</g>
<g>
	<g>
		<path id="SVGID_00000108302786611534358690000013422219517455814574_" class="st0" d="M96.21,16.8l17.81-0.6
			c-1.76,7.26-4.86,11.54-10.69,17.8c-1.44,1.57-3.04,3.08-4.7,4.55c-1.69,1.45-3.47,2.86-5.36,4.2c-3.79,2.67-7.95,5.09-12.44,7.21
			c4.74-1.81,9.26-3.96,13.47-6.41c2.09-1.23,4.1-2.54,6.04-3.91c1.9-1.39,3.75-2.83,5.46-4.36c6.9-6.07,12.04-13.25,14.97-20.91
			l0.97-2.52l-3.96-0.13l-20.07-0.68C97.29,13.05,96.78,14.97,96.21,16.8"/>
	</g>
	<g>
		<defs>
			<path id="SVGID_00000179623164263359449970000004957366551202741183_" d="M96.21,16.8l17.81-0.6
				c-1.76,7.26-4.86,11.54-10.69,17.8c-1.44,1.57-3.04,3.08-4.7,4.55c-1.69,1.45-3.47,2.86-5.36,4.2
				c-3.79,2.67-7.95,5.09-12.44,7.21c4.74-1.81,9.26-3.96,13.47-6.41c2.09-1.23,4.1-2.54,6.04-3.91c1.9-1.39,3.75-2.83,5.46-4.36
				c6.9-6.07,12.04-13.25,14.97-20.91l0.97-2.52l-3.96-0.13l-20.07-0.68C97.29,13.05,96.78,14.97,96.21,16.8"/>
		</defs>
		<clipPath id="SVGID_00000047766384378323911710000004182233453455286424_">
			<use xlink:href="#SVGID_00000179623164263359449970000004957366551202741183_"  style="overflow:visible;"/>
		</clipPath>
		
			<rect x="80.86" y="11.03" style="clip-path:url(#SVGID_00000047766384378323911710000004182233453455286424_);fill:#FFFFFF;" width="40.91" height="38.92"/>
	</g>
</g>
<g>
	<g>
		<defs>
			<path id="SVGID_00000067222813369665363760000017899863250310768575_" d="M22.85,4.32c1.81,30.32,14.03,41.5,18.01,45.95
				c0.89,1,3.73,3.86,6.1,9.25c0.77,1.76,1.38,3.53,1.86,5.25h26.56c0.48-1.72,1.09-3.49,1.86-5.25c2.37-5.4,5.21-8.26,6.1-9.25
				c3.98-4.45,16.2-15.63,18.01-45.95c-14.78-2.02-26.17-3-39.25-3.1C49.03,1.32,36.22,2.38,22.85,4.32"/>
		</defs>
		<clipPath id="SVGID_00000032610189456497234460000014874132548230190221_">
			<use xlink:href="#SVGID_00000067222813369665363760000017899863250310768575_"  style="overflow:visible;"/>
		</clipPath>
		
			<rect x="22.85" y="1.22" style="clip-path:url(#SVGID_00000032610189456497234460000014874132548230190221_);fill:#FFFFFF;" width="78.5" height="63.55"/>
	</g>
</g>
<g>
	<g>
		<path id="SVGID_00000110438325827657284110000005608963055694535579_" class="st0" d="M50.44,67.07c-1.67,0-1.67,2.6,0,2.6h23.57
			c1.67,0,1.67-2.6,0-2.6H50.44z"/>
	</g>
	<g>
		<defs>
			<path id="SVGID_00000130644310411780875550000006205602511931403421_" d="M50.44,67.07c-1.67,0-1.67,2.6,0,2.6h23.57
				c1.67,0,1.67-2.6,0-2.6H50.44z"/>
		</defs>
		<clipPath id="SVGID_00000120558400184136767930000017628698374120484758_">
			<use xlink:href="#SVGID_00000130644310411780875550000006205602511931403421_"  style="overflow:visible;"/>
		</clipPath>
		
			<rect x="48.76" y="67.07" style="clip-path:url(#SVGID_00000120558400184136767930000017628698374120484758_);fill:#FFFFFF;" width="26.92" height="2.59"/>
	</g>
</g>
<g>
	<g>
		<path id="SVGID_00000011725701801966334620000003347031013021772430_" class="st0" d="M51.1,71.76c-1.67,0-1.67,2.59,0,2.59h22.24
			c1.67,0,1.67-2.59,0-2.59H51.1z"/>
	</g>
	<g>
		<defs>
			<path id="SVGID_00000005952000390552903040000002161819062570095492_" d="M51.1,71.76c-1.67,0-1.67,2.59,0,2.59h22.24
				c1.67,0,1.67-2.59,0-2.59H51.1z"/>
		</defs>
		<clipPath id="SVGID_00000139252025069537087810000001519726436802905251_">
			<use xlink:href="#SVGID_00000005952000390552903040000002161819062570095492_"  style="overflow:visible;"/>
		</clipPath>
		
			<rect x="49.42" y="71.76" style="clip-path:url(#SVGID_00000139252025069537087810000001519726436802905251_);fill:#FFFFFF;" width="25.58" height="2.59"/>
	</g>
</g>
<path class="st0" d="M151.76,51.6l2.42-2c0.6,1.2,1.25,2.07,1.94,2.61s1.5,0.81,2.44,0.81c1.16,0,2.11-0.34,2.83-1.02
	s1.08-1.57,1.08-2.66c0-0.77-0.19-1.43-0.57-1.96c-0.38-0.54-1.05-1.09-2.02-1.65c-0.2-0.12-0.5-0.29-0.89-0.51
	c-1.65-0.91-2.75-1.69-3.33-2.32c-0.41-0.45-0.72-0.97-0.92-1.56c-0.21-0.59-0.31-1.23-0.31-1.93c0-1.94,0.62-3.51,1.87-4.73
	c1.24-1.22,2.87-1.83,4.88-1.83c1.35,0,2.54,0.28,3.56,0.83c1.02,0.55,1.86,1.37,2.52,2.47l-2.11,1.94c-0.49-0.8-1.04-1.4-1.64-1.79
	s-1.27-0.59-2.02-0.59c-1.08,0-1.96,0.32-2.63,0.95s-1.01,1.45-1.01,2.45c0,1.2,0.97,2.33,2.9,3.37c0.48,0.25,0.85,0.45,1.1,0.6
	c1.48,0.86,2.54,1.76,3.15,2.69c0.62,0.93,0.92,2.06,0.92,3.41c0,2.09-0.67,3.74-2.02,4.97c-1.34,1.23-3.17,1.84-5.48,1.84
	c-1.56,0-2.9-0.36-4.01-1.08C153.34,54.17,152.45,53.08,151.76,51.6z"/>
<path class="st0" d="M189.66,44.19v-0.53c0-0.44,0.01-0.87,0.03-1.28s0.05-0.83,0.09-1.25c-0.13,0.4-0.31,0.81-0.53,1.23
	s-0.55,0.95-0.99,1.59l-7.94,12.32l-4.56-12.29c-0.11-0.28-0.23-0.63-0.36-1.06s-0.31-1.03-0.53-1.8c-0.04,0.62-0.25,1.59-0.63,2.92
	l-0.02,0.06l-3.31,11.28h-3.5l7.24-22.96l5.34,14.26c0.27,0.7,0.49,1.31,0.65,1.81c0.17,0.51,0.31,1.01,0.44,1.5
	c0.26-0.57,0.54-1.14,0.85-1.7c0.31-0.56,0.64-1.12,1-1.67l9.28-14.2l1.01,22.96h-3.42L189.66,44.19z"/>
<path class="st0" d="M193.6,55.4l12.76-22.9l8.05,22.9h-3.58l-1.79-5.21h-8.77l-2.9,5.21H193.6z M201.65,47.26h6.44l-1.7-5.45
	c-0.08-0.26-0.17-0.61-0.26-1.04s-0.2-1-0.33-1.7c-0.22,0.52-0.44,1.02-0.65,1.48s-0.43,0.91-0.64,1.32L201.65,47.26z"/>
<path class="st0" d="M218.96,55.4h-3.42l2.89-22.03h3.97c1.75,0,3.02,0.1,3.79,0.3c0.77,0.2,1.46,0.54,2.06,1.02
	c0.67,0.52,1.19,1.17,1.54,1.96c0.36,0.78,0.53,1.65,0.53,2.6c0,1.82-0.5,3.29-1.49,4.44c-0.99,1.14-2.4,1.86-4.21,2.15l6.09,9.55
	h-3.88l-5.8-9.42h-0.8L218.96,55.4z M220.55,43.17h0.69c2.17,0,3.64-0.27,4.42-0.81s1.17-1.47,1.17-2.8c0-1.12-0.33-1.91-0.99-2.36
	s-1.94-0.68-3.84-0.68h-0.56L220.55,43.17z"/>
<path class="st0" d="M235.7,55.4l2.5-18.85h-5.94l0.42-3.17h15.04l-0.44,3.17h-5.61l-2.5,18.85H235.7z"/>
<path class="st0" d="M258.86,47.81c0.92,0.99,1.8,1.71,2.64,2.17c0.84,0.45,1.7,0.68,2.59,0.68c0.74,0,1.33-0.18,1.78-0.54
	s0.66-0.84,0.66-1.43c0-0.8-0.89-1.67-2.68-2.6c-0.17-0.09-0.31-0.16-0.41-0.21c-1.74-0.9-2.92-1.77-3.57-2.6
	c-0.64-0.83-0.96-1.85-0.96-3.04c0-2.18,0.74-3.96,2.2-5.34c1.47-1.38,3.36-2.08,5.68-2.08c1.22,0,2.4,0.22,3.53,0.65
	s2.19,1.07,3.2,1.91l-2.53,4.35c-0.79-0.68-1.51-1.19-2.17-1.52s-1.25-0.5-1.81-0.5c-0.6,0-1.1,0.17-1.5,0.52
	c-0.4,0.35-0.6,0.77-0.6,1.27c0,0.62,0.75,1.32,2.26,2.09c0.53,0.27,0.94,0.49,1.23,0.66c1.54,0.85,2.62,1.72,3.22,2.61
	s0.9,2,0.9,3.33c0,2.36-0.82,4.24-2.45,5.65c-1.63,1.41-3.86,2.11-6.67,2.11c-1.47,0-2.85-0.31-4.14-0.94
	c-1.28-0.63-2.44-1.56-3.48-2.79L258.86,47.81z"/>
<path class="st0" d="M274.58,55.4l3.5-22.03h6.05c1.68,0,2.93,0.07,3.78,0.2c0.84,0.14,1.58,0.36,2.2,0.68
	c1.12,0.57,1.96,1.35,2.52,2.35c0.56,0.99,0.83,2.18,0.83,3.57c0,1.37-0.3,2.65-0.89,3.82c-0.6,1.17-1.41,2.08-2.43,2.71
	c-0.6,0.37-1.31,0.63-2.14,0.79c-0.82,0.16-2.11,0.23-3.87,0.23h-0.9h-1.56l-1.23,7.67h-5.86V55.4z M282.4,43.05h0.56
	c1.91,0,3.19-0.2,3.87-0.6c0.67-0.4,1.01-1.08,1.01-2.05c0-0.81-0.29-1.41-0.87-1.78c-0.58-0.38-1.48-0.56-2.71-0.56h-1.05
	L282.4,43.05z"/>
<path class="st0" d="M306.21,55.99c-1.58,0-3.01-0.22-4.29-0.65c-1.29-0.43-2.44-1.08-3.44-1.94c-1.05-0.92-1.88-2.06-2.47-3.42
	s-0.89-2.79-0.89-4.32c0-1.65,0.25-3.18,0.76-4.61s1.26-2.73,2.26-3.89c1.17-1.38,2.61-2.44,4.3-3.18s3.52-1.11,5.5-1.11
	c3.31,0,5.99,0.95,8.03,2.86s3.06,4.38,3.06,7.43c0,1.63-0.26,3.17-0.78,4.61s-1.27,2.74-2.26,3.89c-1.21,1.41-2.65,2.49-4.3,3.22
	C310.04,55.62,308.21,55.99,306.21,55.99z M307.57,38.26c-1.79,0-3.3,0.65-4.51,1.94c-1.21,1.29-1.82,2.9-1.82,4.81
	c0,1.69,0.48,3.05,1.45,4.06s2.26,1.52,3.87,1.52c1.77,0,3.26-0.67,4.5-2.01c1.23-1.34,1.85-2.97,1.85-4.9c0-1.58-0.5-2.89-1.5-3.9
	S309.12,38.26,307.57,38.26z"/>
<path class="st0" d="M326.8,55.4h-5.85l3.47-22.03h5.87c1.76,0,3.08,0.06,3.94,0.19c0.86,0.13,1.61,0.34,2.24,0.64
	c1.11,0.52,1.96,1.26,2.53,2.2c0.57,0.95,0.86,2.08,0.86,3.41c0,1.83-0.54,3.35-1.63,4.58s-2.58,2-4.49,2.31l5.36,8.7h-6.71
	l-4.26-8.41L326.8,55.4z M328.67,43.44h1.85c1.16,0,2.06-0.27,2.68-0.8s0.93-1.3,0.93-2.3c0-0.94-0.29-1.63-0.87-2.05
	c-0.58-0.43-1.51-0.64-2.8-0.64h-0.87L328.67,43.44z"/>
<path class="st0" d="M344.4,55.4l2.68-16.91h-4.93l0.84-5.12h15.56l-0.84,5.12h-4.71l-2.68,16.91H344.4z"/>
<path class="st0" d="M258.42,65.27c-0.43-0.39-0.86-0.68-1.29-0.86c-0.43-0.19-0.88-0.28-1.34-0.28c-0.51,0-0.98,0.09-1.42,0.28
	c-0.44,0.18-0.83,0.45-1.16,0.8c-0.38,0.4-0.67,0.86-0.87,1.37c-0.2,0.51-0.3,1.06-0.3,1.63c0,1.1,0.3,1.97,0.91,2.61
	s1.43,0.96,2.48,0.96c0.41,0,0.81-0.07,1.21-0.21s0.83-0.35,1.28-0.65l-0.25,1.29c-0.37,0.19-0.75,0.34-1.16,0.43
	c-0.4,0.1-0.83,0.14-1.27,0.14c-1.29,0-2.34-0.42-3.15-1.25s-1.21-1.92-1.21-3.24c0-0.74,0.13-1.43,0.39-2.08
	c0.26-0.65,0.64-1.22,1.12-1.71c0.44-0.44,0.94-0.77,1.52-1c0.57-0.23,1.19-0.34,1.85-0.34c0.57,0,1.09,0.08,1.58,0.25
	c0.48,0.17,0.94,0.42,1.36,0.77L258.42,65.27z"/>
<path class="st0" d="M264.67,63.17c1.38,0,2.49,0.41,3.32,1.22c0.83,0.81,1.25,1.9,1.25,3.25c0,0.73-0.14,1.41-0.41,2.06
	c-0.27,0.65-0.66,1.21-1.16,1.69c-0.47,0.45-1.03,0.8-1.66,1.04c-0.64,0.24-1.31,0.37-2.02,0.37c-1.33,0-2.4-0.41-3.23-1.24
	c-0.82-0.83-1.23-1.9-1.23-3.23c0-0.74,0.13-1.44,0.4-2.1c0.27-0.65,0.64-1.22,1.13-1.69c0.46-0.44,1.01-0.78,1.63-1.02
	C263.3,63.28,263.95,63.17,264.67,63.17z M268.12,67.63c0-1.04-0.32-1.88-0.97-2.53c-0.65-0.64-1.5-0.96-2.55-0.96
	c-0.53,0-1.03,0.1-1.5,0.29s-0.88,0.47-1.24,0.83c-0.41,0.41-0.72,0.88-0.93,1.4c-0.22,0.53-0.32,1.08-0.32,1.65
	c0,1.04,0.32,1.89,0.96,2.52c0.64,0.64,1.48,0.96,2.52,0.96c0.54,0,1.05-0.1,1.53-0.29s0.91-0.47,1.28-0.84
	c0.39-0.39,0.69-0.85,0.9-1.38C268.02,68.76,268.12,68.21,268.12,67.63z"/>
<path class="st0" d="M270.33,72.54l1.23-9.53l5.47,7.18l0.91-6.83h1.09l-1.25,9.55l-5.45-7.11l-0.91,6.74H270.33z"/>
<path class="st0" d="M279.45,70.87l0.81-0.68c0.25,0.58,0.53,1,0.83,1.25s0.67,0.38,1.11,0.38c0.56,0,1-0.16,1.34-0.48
	c0.33-0.32,0.5-0.75,0.5-1.29c0-0.33-0.08-0.61-0.24-0.83s-0.56-0.51-1.19-0.85c-0.82-0.45-1.37-0.85-1.65-1.21s-0.42-0.8-0.42-1.31
	c0-0.79,0.25-1.43,0.76-1.93c0.5-0.5,1.16-0.75,1.96-0.75c0.53,0,1,0.12,1.39,0.35c0.4,0.23,0.75,0.59,1.06,1.08l-0.8,0.68
	c-0.2-0.39-0.43-0.68-0.7-0.87c-0.27-0.19-0.58-0.28-0.93-0.28c-0.48,0-0.88,0.15-1.18,0.44c-0.3,0.29-0.45,0.66-0.45,1.12
	c0,0.61,0.47,1.16,1.4,1.66c0.16,0.09,0.29,0.15,0.38,0.2c0.66,0.37,1.11,0.74,1.35,1.11c0.25,0.37,0.37,0.83,0.37,1.39
	c0,0.85-0.26,1.52-0.78,2.02s-1.23,0.75-2.13,0.75c-0.66,0-1.22-0.16-1.69-0.49C280.07,71.98,279.7,71.49,279.45,70.87z"/>
<path class="st0" d="M287.6,63.37h1.12l-0.73,5.59c-0.03,0.2-0.04,0.37-0.06,0.5c-0.02,0.13-0.02,0.24-0.02,0.32
	c0,0.66,0.17,1.16,0.52,1.5c0.34,0.35,0.84,0.52,1.5,0.52c0.46,0,0.87-0.08,1.23-0.24c0.35-0.16,0.65-0.39,0.88-0.71
	c0.3-0.42,0.53-1.19,0.68-2.33c0.01-0.1,0.02-0.18,0.03-0.24l0.66-4.92h1.1l-0.68,5.16v0.01c-0.19,1.44-0.5,2.44-0.93,2.98
	c-0.33,0.42-0.76,0.74-1.29,0.96c-0.52,0.22-1.11,0.33-1.76,0.33c-0.93,0-1.67-0.24-2.23-0.71c-0.55-0.47-0.83-1.1-0.83-1.9
	c0-0.31,0.02-0.67,0.06-1.1c0.04-0.43,0.1-0.94,0.19-1.55L287.6,63.37z"/>
<path class="st0" d="M295.38,72.54l1.2-9.18h1.1l-1.08,8.16h3.3l-0.13,1.02C299.77,72.54,295.38,72.54,295.38,72.54z"/>
<path class="st0" d="M302.42,72.54l1.07-8.18h-2.31l0.13-1h5.78l-0.13,1h-2.33l-1.08,8.18H302.42z"/>
<path class="st0" d="M307.3,72.54l1.2-9.18h1.15l-1.21,9.18H307.3z"/>
<path class="st0" d="M310.64,72.54l1.23-9.53l5.47,7.18l0.91-6.83h1.09l-1.25,9.55l-5.45-7.11l-0.91,6.74H310.64z"/>
<path class="st0" d="M325.64,68.05h3.87v0.06c0,1.44-0.41,2.58-1.24,3.42s-1.94,1.26-3.36,1.26c-1.36,0-2.44-0.41-3.25-1.22
	s-1.22-1.9-1.22-3.25c0-0.74,0.13-1.44,0.4-2.09c0.27-0.66,0.65-1.22,1.15-1.71c0.47-0.45,1.01-0.79,1.6-1.02
	c0.6-0.23,1.23-0.35,1.92-0.35c0.87,0,1.62,0.15,2.26,0.45s1.21,0.77,1.72,1.41l-0.82,0.73c-0.43-0.55-0.9-0.95-1.42-1.21
	c-0.51-0.26-1.09-0.39-1.73-0.39c-1.15,0-2.09,0.4-2.84,1.2c-0.75,0.8-1.12,1.81-1.12,3.03c0,1.04,0.32,1.88,0.96,2.51
	c0.64,0.63,1.48,0.95,2.53,0.95c0.87,0,1.62-0.27,2.25-0.8s0.98-1.21,1.07-2.03h-2.88L325.64,68.05z"/>
<path class="st0" d="M334.39,72.54l1.2-9.18h1.15l-1.21,9.18H334.39z"/>
<path class="st0" d="M337.73,72.54l1.23-9.53l5.47,7.18l0.91-6.83h1.09l-1.25,9.55l-5.45-7.11l-0.91,6.74H337.73z"/>
<path class="st0" d="M355.08,65.27c-0.43-0.39-0.86-0.68-1.29-0.86c-0.43-0.19-0.88-0.28-1.34-0.28c-0.51,0-0.98,0.09-1.42,0.28
	c-0.44,0.18-0.83,0.45-1.16,0.8c-0.38,0.4-0.67,0.86-0.87,1.37c-0.2,0.51-0.3,1.06-0.3,1.63c0,1.1,0.3,1.97,0.91,2.61
	c0.61,0.64,1.43,0.96,2.48,0.96c0.41,0,0.81-0.07,1.21-0.21s0.83-0.35,1.28-0.65l-0.25,1.29c-0.37,0.19-0.75,0.34-1.16,0.43
	c-0.4,0.1-0.83,0.14-1.27,0.14c-1.29,0-2.34-0.42-3.15-1.25s-1.21-1.92-1.21-3.24c0-0.74,0.13-1.43,0.39-2.08
	c0.26-0.65,0.64-1.22,1.12-1.71c0.44-0.44,0.94-0.77,1.52-1c0.57-0.23,1.19-0.34,1.85-0.34c0.57,0,1.09,0.08,1.58,0.25
	c0.48,0.17,0.94,0.42,1.36,0.77L355.08,65.27z"/>
<path class="st0" d="M356.11,71.96c0-0.2,0.07-0.37,0.21-0.51c0.14-0.14,0.31-0.21,0.51-0.21s0.37,0.07,0.51,0.21
	s0.21,0.31,0.21,0.51c0,0.2-0.07,0.37-0.21,0.5c-0.14,0.13-0.31,0.2-0.51,0.2c-0.21,0-0.38-0.07-0.51-0.2
	C356.18,72.32,356.11,72.15,356.11,71.96z"/>
<rect x="136.79" y="1.22" class="st0" width="0.75" height="90.56"/>
</svg>
