<?xml version="1.0" encoding="utf-8"?>
<!-- Generator: Adobe Illustrator 26.2.1, SVG Export Plug-In . SVG Version: 6.00 Build 0)  -->
<svg version="1.1" id="Layer_1" xmlns="http://www.w3.org/2000/svg" xmlns:xlink="http://www.w3.org/1999/xlink" x="0px" y="0px"
	 viewBox="0 0 60 60" style="enable-background:new 0 0 60 60;" xml:space="preserve">
<style type="text/css">
	.st0{fill:#054B78;}
	.st1{fill:#FFFFFF;}
</style>
<g>
	<path class="st0" d="M30,0.24C13.57,0.24,0.24,13.56,0.24,30c0,16.44,13.33,29.76,29.76,29.76c16.44,0,29.76-13.32,29.76-29.76
		C59.76,13.56,46.44,0.24,30,0.24"/>
	<g>
		<path class="st1" d="M30,13.29c5.44,0,6.09,0.02,8.23,0.12c1.99,0.09,3.07,0.42,3.78,0.7c0.95,0.37,1.63,0.81,2.34,1.52
			c0.71,0.71,1.15,1.39,1.52,2.34c0.28,0.72,0.61,1.8,0.7,3.78c0.1,2.15,0.12,2.79,0.12,8.23s-0.02,6.09-0.12,8.23
			c-0.09,1.99-0.42,3.07-0.7,3.78c-0.37,0.95-0.81,1.63-1.52,2.34c-0.71,0.71-1.39,1.15-2.34,1.52c-0.72,0.28-1.8,0.61-3.78,0.7
			c-2.15,0.1-2.79,0.12-8.23,0.12s-6.09-0.02-8.23-0.12c-1.99-0.09-3.07-0.42-3.78-0.7c-0.95-0.37-1.63-0.81-2.34-1.52
			c-0.71-0.71-1.15-1.39-1.52-2.34c-0.28-0.72-0.61-1.8-0.7-3.78c-0.1-2.15-0.12-2.79-0.12-8.23s0.02-6.09,0.12-8.23
			c0.09-1.99,0.42-3.07,0.7-3.78c0.37-0.95,0.81-1.63,1.52-2.34c0.71-0.71,1.39-1.15,2.34-1.52c0.72-0.28,1.8-0.61,3.78-0.7
			C23.91,13.32,24.56,13.29,30,13.29 M30,9.62c-5.53,0-6.23,0.02-8.4,0.12c-2.17,0.1-3.65,0.44-4.95,0.95
			c-1.34,0.52-2.48,1.22-3.61,2.35c-1.13,1.13-1.83,2.27-2.35,3.61c-0.5,1.3-0.85,2.78-0.95,4.95c-0.1,2.17-0.12,2.87-0.12,8.4
			c0,5.53,0.02,6.23,0.12,8.4c0.1,2.17,0.44,3.65,0.95,4.95c0.52,1.34,1.22,2.48,2.35,3.61c1.13,1.13,2.27,1.83,3.61,2.35
			c1.3,0.5,2.78,0.85,4.95,0.95c2.17,0.1,2.87,0.12,8.4,0.12s6.23-0.02,8.4-0.12c2.17-0.1,3.65-0.44,4.95-0.95
			c1.34-0.52,2.48-1.22,3.61-2.35c1.13-1.13,1.83-2.27,2.35-3.61c0.5-1.3,0.85-2.78,0.95-4.95c0.1-2.17,0.12-2.87,0.12-8.4
			s-0.02-6.23-0.12-8.4c-0.1-2.17-0.44-3.65-0.95-4.95c-0.52-1.34-1.22-2.48-2.35-3.61c-1.13-1.13-2.27-1.83-3.61-2.35
			c-1.3-0.5-2.78-0.85-4.95-0.95C36.23,9.65,35.53,9.62,30,9.62L30,9.62z"/>
		<path class="st1" d="M30,19.54c-5.78,0-10.46,4.68-10.46,10.46S24.22,40.46,30,40.46S40.46,35.78,40.46,30S35.78,19.54,30,19.54z
			 M30,36.79c-3.75,0-6.79-3.04-6.79-6.79c0-3.75,3.04-6.79,6.79-6.79c3.75,0,6.79,3.04,6.79,6.79C36.79,33.75,33.75,36.79,30,36.79
			z"/>
		<circle class="st1" cx="40.88" cy="19.12" r="2.45"/>
	</g>
</g>
</svg>
