<?xml version="1.0" encoding="utf-8"?>
<!-- Generator: Adobe Illustrator 26.2.1, SVG Export Plug-In . SVG Version: 6.00 Build 0)  -->
<svg version="1.1" id="Layer_1" xmlns="http://www.w3.org/2000/svg" xmlns:xlink="http://www.w3.org/1999/xlink" x="0px" y="0px"
	 viewBox="0 0 131 110" style="enable-background:new 0 0 131 110;" xml:space="preserve">
<style type="text/css">
	.st0{clip-path:url(#SVGID_00000149353832872710325780000017608417399379504827_);fill:#FFFFFF;}
	.st1{fill:none;}
	.st2{fill:#FFFFFF;}
	.st3{clip-path:url(#SVGID_00000168834405333844785840000007747848709852414644_);fill:#FFFFFF;}
	.st4{clip-path:url(#SVGID_00000050637288539886594610000005171155826840430008_);fill:#FFFFFF;}
	.st5{fill:#054B78;}
</style>
<g>
	<defs>
		<rect id="SVGID_1_" x="39.22" y="71.81" width="52.27" height="2.6"/>
	</defs>
	<use xlink:href="#SVGID_1_"  style="overflow:visible;fill:#FFFFFF;"/>
	<clipPath id="SVGID_00000020395046610098213330000004688033526871062701_">
		<use xlink:href="#SVGID_1_"  style="overflow:visible;"/>
	</clipPath>
	
		<rect x="39.22" y="71.81" style="clip-path:url(#SVGID_00000020395046610098213330000004688033526871062701_);fill:#FFFFFF;" width="52.27" height="2.6"/>
</g>
<g>
	<path class="st1" d="M65.65,69.23c3.68,0,6.71-2.55,7.05-5.8H58.6C58.94,66.68,61.97,69.23,65.65,69.23z"/>
	<path class="st2" d="M57.36,62.22v0.6c0,4.2,3.72,7.61,8.29,7.61c4.57,0,8.29-3.42,8.29-7.61v-0.6H57.36z M65.65,69.23
		c-3.68,0-6.71-2.55-7.05-5.8H72.7C72.36,66.68,69.33,69.23,65.65,69.23z"/>
</g>
<path class="st2" d="M35.99,29.89c-1.38-1.05-2.7-2.13-3.9-3.25c-4.83-4.48-7.4-7.55-8.86-12.74l14.78,0.43
	c-0.46-1.31-0.89-2.68-1.26-4.12L20.1,10.68l-3.28,0.1l0.8,1.81c2.43,5.49,6.7,10.62,12.42,14.97c1.42,1.09,2.95,2.12,4.53,3.12
	c1.61,0.98,3.27,1.92,5.01,2.8c3.49,1.75,7.23,3.29,11.17,4.59c-3.72-1.52-7.18-3.25-10.32-5.16C38.87,31.93,37.4,30.93,35.99,29.89
	z"/>
<path class="st2" d="M94.43,10.2c-0.37,1.44-0.78,2.81-1.24,4.12l14.56-0.43c-1.44,5.2-3.97,8.26-8.74,12.74
	c-1.18,1.12-2.48,2.2-3.84,3.25c-1.38,1.04-2.84,2.05-4.38,3.01c-3.1,1.91-6.5,3.65-10.17,5.16c3.88-1.3,7.57-2.83,11.01-4.59
	c1.71-0.88,3.35-1.82,4.94-2.8c1.56-1,3.07-2.03,4.47-3.12c5.64-4.35,9.84-9.48,12.24-14.97l0.79-1.81l-3.23-0.1L94.43,10.2z"/>
<g>
	<defs>
		<path id="SVGID_00000129187257407959576740000015912112417744599973_" d="M57.22,56.62c-0.82,0-0.82,1.27,0,1.27H74.1
			c0.82,0,0.82-1.27,0-1.27H57.22z"/>
	</defs>
	<use xlink:href="#SVGID_00000129187257407959576740000015912112417744599973_"  style="overflow:visible;fill:#FFFFFF;"/>
	<clipPath id="SVGID_00000054973945970169037360000006006147024226846392_">
		<use xlink:href="#SVGID_00000129187257407959576740000015912112417744599973_"  style="overflow:visible;"/>
	</clipPath>
	
		<rect x="56.41" y="56.62" style="clip-path:url(#SVGID_00000054973945970169037360000006006147024226846392_);fill:#FFFFFF;" width="18.51" height="1.27"/>
</g>
<g>
	<defs>
		<path id="SVGID_00000013170054965130009770000012994677247415366062_" d="M57.69,59.41c-0.82,0-0.82,1.27,0,1.27h15.92
			c0.82,0,0.82-1.27,0-1.27H57.69z"/>
	</defs>
	<use xlink:href="#SVGID_00000013170054965130009770000012994677247415366062_"  style="overflow:visible;fill:#FFFFFF;"/>
	<clipPath id="SVGID_00000179607566165293854550000004421975573437604018_">
		<use xlink:href="#SVGID_00000013170054965130009770000012994677247415366062_"  style="overflow:visible;"/>
	</clipPath>
	
		<rect x="56.87" y="59.41" style="clip-path:url(#SVGID_00000179607566165293854550000004421975573437604018_);fill:#FFFFFF;" width="17.55" height="1.27"/>
</g>
<g>
	<polygon class="st1" points="35.23,3.36 35.23,3.36 35.23,3.36 	"/>
	<path class="st2" d="M79.6,1.34c-4.74-0.4-9.46-0.64-14.25-0.7c-4.78,0.05-9.52,0.29-14.25,0.71c-4.74,0.4-9.43,1.04-14.1,1.74
		l-1.77,0.27v0l0.13,1.73c0.36,4.71,1.08,9.43,2.43,14.01c0.36,1.14,0.71,2.28,1.12,3.4c0.44,1.11,0.84,2.23,1.36,3.31
		c0.97,2.18,2.17,4.27,3.54,6.23c1.36,1.96,2.92,3.8,4.58,5.45l1.22,1.23c0.4,0.4,0.78,0.8,1.15,1.22c0.73,0.84,1.39,1.74,1.98,2.69
		c2.39,3.81,3.69,8.32,4.32,12.9c-0.04-4.62-0.85-9.36-3.03-13.63c-0.54-1.06-1.17-2.09-1.88-3.06c-0.35-0.49-0.74-0.96-1.12-1.41
		l-1.12-1.33c-1.5-1.73-2.83-3.52-3.98-5.44c-0.59-0.95-1.09-1.95-1.61-2.94c-0.46-1.02-0.94-2.03-1.34-3.07
		c-0.44-1.03-0.77-2.1-1.13-3.16c-0.34-1.07-0.61-2.16-0.9-3.24c-1.03-4.37-1.48-7.07-1.71-11.59c4.65-0.56,7.54-0.83,12.18-1.21
		c4.63-0.37,9.3-0.55,13.92-0.57c4.62,0.01,9.29,0.2,13.92,0.55c4.64,0.37,7.54,0.6,12.16,1.21l-0.11,1.62
		c-0.09,1.13-0.25,2.24-0.38,3.36c-0.13,1.12-0.35,2.22-0.51,3.34c-0.19,1.11-0.46,2.2-0.69,3.3c-0.29,1.08-0.57,2.17-0.91,3.24
		c-0.36,1.06-0.69,2.13-1.13,3.16c-0.39,1.05-0.88,2.05-1.33,3.08c-0.51,0.99-1.02,1.99-1.61,2.94c-1.16,1.92-2.49,3.71-3.98,5.44
		l-1.12,1.33c-0.38,0.45-0.76,0.92-1.12,1.41c-0.71,0.97-1.34,2-1.89,3.06c-2.17,4.27-2.99,9.01-3.03,13.63
		c0.63-4.58,1.93-9.09,4.32-12.9c0.59-0.95,1.25-1.85,1.98-2.69c0.36-0.42,0.74-0.82,1.15-1.22l1.22-1.23
		c1.66-1.65,3.22-3.49,4.58-5.45c1.37-1.96,2.57-4.05,3.54-6.23c0.52-1.08,0.93-2.2,1.36-3.31c0.41-1.12,0.76-2.26,1.12-3.39
		c0.29-1.15,0.64-2.3,0.89-3.46l0.37-1.74c0.12-0.58,0.26-1.16,0.33-1.75c0.16-1.17,0.37-2.34,0.5-3.52l0.35-3.53l0.17-1.7
		L93.72,3.1C89.04,2.36,84.34,1.72,79.6,1.34z"/>
</g>
<path class="st2" d="M0.39,96.22l1.53-1.26c0.38,0.76,0.79,1.31,1.22,1.65c0.44,0.34,0.95,0.51,1.54,0.51
	c0.73,0,1.33-0.22,1.78-0.65c0.46-0.43,0.68-0.99,0.68-1.68c0-0.49-0.12-0.9-0.36-1.24c-0.24-0.34-0.66-0.68-1.27-1.04
	c-0.13-0.08-0.31-0.18-0.56-0.32c-1.04-0.58-1.74-1.06-2.1-1.46c-0.26-0.28-0.45-0.61-0.58-0.99c-0.13-0.37-0.19-0.78-0.19-1.21
	c0-1.22,0.39-2.22,1.18-2.98c0.78-0.77,1.81-1.15,3.07-1.15c0.85,0,1.6,0.17,2.24,0.52c0.64,0.35,1.17,0.87,1.59,1.56l-1.33,1.22
	c-0.31-0.51-0.65-0.88-1.03-1.13c-0.38-0.25-0.8-0.37-1.27-0.37c-0.68,0-1.24,0.2-1.66,0.6s-0.64,0.91-0.64,1.55
	c0,0.76,0.61,1.47,1.83,2.12c0.3,0.16,0.53,0.28,0.69,0.38c0.94,0.54,1.6,1.11,1.99,1.69c0.39,0.58,0.58,1.3,0.58,2.15
	c0,1.32-0.42,2.36-1.27,3.14c-0.85,0.78-2,1.16-3.45,1.16c-0.99,0-1.83-0.23-2.53-0.68C1.37,97.84,0.81,97.15,0.39,96.22z"/>
<path class="st2" d="M24.28,91.54v-0.33c0-0.28,0.01-0.55,0.02-0.81c0.01-0.26,0.03-0.52,0.06-0.79c-0.08,0.25-0.19,0.51-0.34,0.78
	c-0.14,0.27-0.35,0.6-0.62,1.01l-5.01,7.77l-2.87-7.75c-0.07-0.18-0.15-0.4-0.23-0.67c-0.08-0.27-0.19-0.65-0.33-1.13
	c-0.03,0.39-0.16,1.01-0.4,1.84l-0.01,0.04l-2.09,7.12h-2.21l4.56-14.48l3.37,8.99c0.17,0.44,0.31,0.82,0.41,1.14
	c0.1,0.32,0.2,0.63,0.28,0.94c0.16-0.36,0.34-0.72,0.54-1.07c0.19-0.35,0.4-0.71,0.63-1.05l5.85-8.96l0.64,14.48h-2.15L24.28,91.54z
	"/>
<path class="st2" d="M26.76,98.61l8.05-14.44l5.08,14.44h-2.26l-1.13-3.28h-5.53l-1.83,3.28H26.76z M31.84,93.48h4.06l-1.07-3.43
	c-0.05-0.16-0.1-0.38-0.16-0.65c-0.06-0.27-0.13-0.63-0.21-1.07c-0.14,0.33-0.28,0.64-0.41,0.93c-0.14,0.29-0.27,0.57-0.4,0.83
	L31.84,93.48z"/>
<path class="st2" d="M42.76,98.61H40.6l1.82-13.89h2.5c1.11,0,1.9,0.06,2.39,0.19c0.49,0.13,0.92,0.34,1.3,0.64
	c0.42,0.33,0.75,0.74,0.97,1.23s0.34,1.04,0.34,1.64c0,1.14-0.31,2.08-0.94,2.8c-0.63,0.72-1.51,1.17-2.66,1.36l3.84,6.02h-2.45
	l-3.67-5.95h-0.5L42.76,98.61z M43.76,90.9h0.44c1.37,0,2.3-0.17,2.79-0.51c0.49-0.34,0.74-0.93,0.74-1.76
	c0-0.71-0.21-1.2-0.62-1.49c-0.41-0.28-1.22-0.43-2.42-0.43h-0.35L43.76,90.9z"/>
<path class="st2" d="M53.31,98.61l1.57-11.89h-3.75l0.27-2h9.49l-0.28,2h-3.54L55.5,98.61H53.31z"/>
<path class="st2" d="M67.91,93.83c0.58,0.63,1.14,1.08,1.67,1.37c0.53,0.28,1.07,0.43,1.64,0.43c0.47,0,0.84-0.11,1.12-0.34
	c0.28-0.23,0.42-0.53,0.42-0.9c0-0.51-0.56-1.05-1.69-1.64c-0.11-0.06-0.19-0.1-0.26-0.13c-1.09-0.57-1.84-1.12-2.25-1.64
	c-0.4-0.53-0.61-1.16-0.61-1.92c0-1.37,0.46-2.5,1.39-3.37c0.93-0.87,2.12-1.31,3.58-1.31c0.77,0,1.51,0.14,2.22,0.41
	c0.71,0.27,1.38,0.67,2.02,1.2l-1.59,2.74c-0.5-0.43-0.96-0.75-1.37-0.96c-0.41-0.21-0.79-0.31-1.14-0.31
	c-0.38,0-0.7,0.11-0.95,0.33c-0.25,0.22-0.38,0.49-0.38,0.8c0,0.39,0.47,0.83,1.42,1.32c0.34,0.17,0.59,0.31,0.78,0.42
	c0.97,0.54,1.65,1.09,2.03,1.65c0.38,0.56,0.57,1.26,0.57,2.1c0,1.49-0.52,2.67-1.55,3.56s-2.43,1.33-4.2,1.33
	c-0.93,0-1.8-0.2-2.61-0.59s-1.54-0.98-2.19-1.76L67.91,93.83z"/>
<path class="st2" d="M77.83,98.61l2.21-13.89h3.81c1.06,0,1.85,0.04,2.38,0.13c0.53,0.09,0.99,0.23,1.39,0.43
	c0.71,0.36,1.24,0.85,1.59,1.48c0.35,0.63,0.53,1.38,0.53,2.25c0,0.87-0.19,1.67-0.56,2.41c-0.38,0.74-0.89,1.31-1.53,1.71
	c-0.38,0.23-0.83,0.4-1.35,0.5c-0.52,0.1-1.33,0.15-2.44,0.15h-0.57H82.3l-0.78,4.84H77.83z M82.76,90.82h0.35
	c1.2,0,2.01-0.13,2.44-0.38c0.42-0.25,0.64-0.68,0.64-1.29c0-0.51-0.18-0.89-0.55-1.12c-0.36-0.24-0.93-0.36-1.71-0.36h-0.66
	L82.76,90.82z"/>
<path class="st2" d="M97.78,98.98c-0.99,0-1.9-0.14-2.71-0.41c-0.81-0.27-1.54-0.68-2.17-1.22c-0.66-0.58-1.18-1.3-1.56-2.15
	s-0.56-1.76-0.56-2.72c0-1.04,0.16-2.01,0.48-2.91c0.32-0.9,0.8-1.72,1.43-2.45c0.74-0.87,1.64-1.54,2.71-2.01
	c1.07-0.46,2.22-0.7,3.47-0.7c2.09,0,3.77,0.6,5.06,1.8c1.29,1.2,1.93,2.76,1.93,4.69c0,1.03-0.16,2-0.49,2.91s-0.8,1.73-1.43,2.45
	c-0.76,0.89-1.67,1.57-2.71,2.03C100.19,98.75,99.04,98.98,97.78,98.98z M98.63,87.8c-1.13,0-2.08,0.41-2.85,1.22
	c-0.77,0.82-1.15,1.83-1.15,3.04c0,1.07,0.31,1.92,0.92,2.56c0.61,0.64,1.42,0.96,2.44,0.96c1.11,0,2.06-0.42,2.84-1.27
	c0.78-0.84,1.17-1.87,1.17-3.09c0-1-0.32-1.82-0.95-2.46C100.42,88.13,99.62,87.8,98.63,87.8z"/>
<path class="st2" d="M110.76,98.61h-3.69l2.19-13.89h3.7c1.11,0,1.94,0.04,2.49,0.12c0.54,0.08,1.01,0.21,1.41,0.4
	c0.7,0.33,1.23,0.79,1.59,1.39c0.36,0.6,0.54,1.31,0.54,2.15c0,1.15-0.34,2.11-1.03,2.89c-0.69,0.77-1.63,1.26-2.83,1.46l3.38,5.48
	h-4.23l-2.68-5.3L110.76,98.61z M111.95,91.07h1.17c0.73,0,1.3-0.17,1.69-0.5c0.39-0.34,0.59-0.82,0.59-1.45
	c0-0.59-0.18-1.03-0.55-1.29c-0.37-0.27-0.96-0.4-1.76-0.4h-0.55L111.95,91.07z"/>
<path class="st2" d="M121.86,98.61l1.69-10.66h-3.11l0.53-3.23h9.81l-0.53,3.23h-2.97l-1.69,10.66H121.86z"/>
<path class="st2" d="M67.64,104.84c-0.27-0.24-0.54-0.43-0.81-0.54c-0.27-0.12-0.55-0.18-0.85-0.18c-0.32,0-0.62,0.06-0.9,0.17
	c-0.28,0.12-0.52,0.28-0.73,0.51c-0.24,0.25-0.42,0.54-0.55,0.87c-0.13,0.32-0.19,0.67-0.19,1.03c0,0.69,0.19,1.24,0.57,1.64
	c0.38,0.4,0.9,0.6,1.56,0.6c0.26,0,0.51-0.04,0.77-0.13c0.25-0.09,0.52-0.22,0.81-0.41l-0.15,0.81c-0.23,0.12-0.47,0.21-0.73,0.27
	s-0.52,0.09-0.8,0.09c-0.81,0-1.48-0.26-1.98-0.79c-0.51-0.53-0.76-1.21-0.76-2.05c0-0.46,0.08-0.9,0.25-1.31
	c0.16-0.41,0.4-0.77,0.71-1.08c0.28-0.28,0.6-0.49,0.96-0.63c0.36-0.14,0.75-0.22,1.17-0.22c0.36,0,0.69,0.05,0.99,0.16
	c0.3,0.1,0.59,0.27,0.86,0.48L67.64,104.84z"/>
<path class="st2" d="M71.58,103.51c0.87,0,1.57,0.26,2.1,0.77c0.52,0.51,0.79,1.2,0.79,2.05c0,0.46-0.09,0.89-0.26,1.3
	c-0.17,0.41-0.41,0.76-0.73,1.07c-0.3,0.28-0.65,0.5-1.05,0.66c-0.4,0.15-0.83,0.23-1.28,0.23c-0.84,0-1.52-0.26-2.03-0.78
	c-0.52-0.52-0.78-1.2-0.78-2.04c0-0.47,0.08-0.91,0.25-1.32s0.41-0.77,0.71-1.07c0.29-0.28,0.63-0.49,1.03-0.64
	C70.72,103.58,71.13,103.51,71.58,103.51z M73.76,106.33c0-0.66-0.2-1.19-0.61-1.59c-0.41-0.41-0.94-0.61-1.61-0.61
	c-0.33,0-0.65,0.06-0.94,0.18c-0.3,0.12-0.56,0.3-0.78,0.52c-0.26,0.26-0.45,0.55-0.59,0.89c-0.14,0.33-0.2,0.68-0.2,1.04
	c0,0.66,0.2,1.19,0.6,1.59c0.4,0.4,0.93,0.6,1.59,0.6c0.34,0,0.66-0.06,0.96-0.18c0.3-0.12,0.57-0.3,0.81-0.53
	c0.25-0.24,0.43-0.53,0.57-0.87C73.69,107.04,73.76,106.69,73.76,106.33z"/>
<path class="st2" d="M75.15,109.42l0.78-6.01l3.45,4.53l0.57-4.3h0.69l-0.79,6.02l-3.44-4.48l-0.57,4.25H75.15z"/>
<path class="st2" d="M80.9,108.37l0.51-0.43c0.16,0.37,0.33,0.63,0.52,0.79c0.19,0.16,0.42,0.24,0.7,0.24c0.35,0,0.63-0.1,0.84-0.3
	c0.21-0.2,0.32-0.47,0.32-0.81c0-0.21-0.05-0.39-0.15-0.53c-0.1-0.14-0.35-0.32-0.75-0.54c-0.52-0.28-0.86-0.54-1.04-0.77
	c-0.18-0.23-0.26-0.5-0.26-0.83c0-0.5,0.16-0.9,0.48-1.22c0.32-0.32,0.73-0.47,1.24-0.47c0.33,0,0.63,0.07,0.88,0.22
	c0.25,0.15,0.47,0.37,0.67,0.68l-0.5,0.43c-0.13-0.25-0.27-0.43-0.44-0.55c-0.17-0.12-0.36-0.18-0.59-0.18
	c-0.31,0-0.55,0.09-0.74,0.27c-0.19,0.18-0.28,0.42-0.28,0.71c0,0.38,0.29,0.73,0.88,1.05c0.1,0.06,0.18,0.1,0.24,0.13
	c0.41,0.23,0.7,0.47,0.85,0.7c0.15,0.23,0.23,0.52,0.23,0.87c0,0.54-0.16,0.96-0.49,1.28c-0.33,0.31-0.78,0.47-1.34,0.47
	c-0.41,0-0.77-0.1-1.06-0.31C81.29,109.07,81.06,108.76,80.9,108.37z"/>
<path class="st2" d="M86.04,103.64h0.7l-0.46,3.52c-0.02,0.13-0.03,0.23-0.04,0.32c-0.01,0.08-0.01,0.15-0.01,0.2
	c0,0.41,0.11,0.73,0.33,0.95c0.22,0.22,0.53,0.33,0.95,0.33c0.29,0,0.55-0.05,0.77-0.15c0.22-0.1,0.41-0.25,0.56-0.45
	c0.19-0.26,0.34-0.75,0.43-1.47c0.01-0.07,0.01-0.12,0.02-0.15l0.42-3.1h0.7l-0.43,3.25v0c-0.12,0.91-0.31,1.54-0.59,1.88
	c-0.21,0.26-0.48,0.47-0.81,0.61c-0.33,0.14-0.7,0.21-1.11,0.21c-0.59,0-1.06-0.15-1.4-0.44c-0.35-0.3-0.52-0.7-0.52-1.2
	c0-0.19,0.01-0.42,0.04-0.69c0.03-0.27,0.06-0.59,0.12-0.98L86.04,103.64z"/>
<path class="st2" d="M90.95,109.43l0.76-5.79h0.7l-0.68,5.15h2.08l-0.08,0.64H90.95z"/>
<path class="st2" d="M95.38,109.43l0.67-5.16H94.6l0.08-0.63h3.64l-0.08,0.63h-1.47l-0.68,5.16H95.38z"/>
<path class="st2" d="M98.46,109.43l0.76-5.79h0.72l-0.76,5.79H98.46z"/>
<path class="st2" d="M100.57,109.42l0.78-6.01l3.45,4.53l0.57-4.3h0.69l-0.79,6.02l-3.43-4.48l-0.57,4.25H100.57z"/>
<path class="st2" d="M110.03,106.59h2.44v0.04c0,0.91-0.26,1.63-0.78,2.16c-0.52,0.53-1.23,0.79-2.12,0.79
	c-0.86,0-1.54-0.26-2.05-0.77c-0.51-0.51-0.77-1.2-0.77-2.05c0-0.47,0.08-0.91,0.25-1.32c0.17-0.41,0.41-0.77,0.73-1.08
	c0.3-0.29,0.63-0.5,1.01-0.65c0.38-0.15,0.78-0.22,1.21-0.22c0.55,0,1.02,0.09,1.43,0.28c0.4,0.19,0.77,0.49,1.09,0.89l-0.52,0.46
	c-0.27-0.35-0.57-0.6-0.89-0.76c-0.32-0.16-0.69-0.25-1.09-0.25c-0.72,0-1.32,0.25-1.79,0.76c-0.47,0.5-0.71,1.14-0.71,1.91
	c0,0.66,0.2,1.18,0.6,1.58c0.4,0.4,0.94,0.6,1.6,0.6c0.55,0,1.02-0.17,1.42-0.5c0.4-0.33,0.62-0.76,0.68-1.28h-1.81L110.03,106.59z"
	/>
<path class="st2" d="M115.55,109.43l0.76-5.79h0.72l-0.76,5.79H115.55z"/>
<path class="st2" d="M117.65,109.42l0.77-6.01l3.45,4.53l0.57-4.3h0.69l-0.79,6.02l-3.44-4.48l-0.57,4.25H117.65z"/>
<path class="st2" d="M128.59,104.84c-0.27-0.24-0.54-0.43-0.81-0.54c-0.27-0.12-0.55-0.18-0.85-0.18c-0.32,0-0.62,0.06-0.9,0.17
	c-0.28,0.12-0.52,0.28-0.73,0.51c-0.24,0.25-0.42,0.54-0.55,0.87c-0.13,0.32-0.19,0.67-0.19,1.03c0,0.69,0.19,1.24,0.57,1.64
	c0.38,0.4,0.9,0.6,1.56,0.6c0.26,0,0.51-0.04,0.76-0.13c0.25-0.09,0.52-0.22,0.81-0.41l-0.15,0.81c-0.23,0.12-0.48,0.21-0.73,0.27
	c-0.25,0.06-0.52,0.09-0.8,0.09c-0.81,0-1.48-0.26-1.98-0.79c-0.51-0.53-0.76-1.21-0.76-2.05c0-0.46,0.08-0.9,0.25-1.31
	c0.16-0.41,0.4-0.77,0.71-1.08c0.28-0.28,0.6-0.49,0.96-0.63c0.36-0.14,0.75-0.22,1.17-0.22c0.36,0,0.69,0.05,0.99,0.16
	c0.3,0.1,0.59,0.27,0.86,0.48L128.59,104.84z"/>
<path class="st5" d="M129.24,109.05c0-0.13,0.04-0.23,0.13-0.32c0.09-0.09,0.2-0.13,0.32-0.13c0.13,0,0.23,0.04,0.32,0.13
	c0.09,0.09,0.13,0.2,0.13,0.32c0,0.13-0.04,0.23-0.13,0.32c-0.09,0.08-0.2,0.13-0.32,0.13s-0.24-0.04-0.32-0.13
	C129.29,109.29,129.24,109.18,129.24,109.05z"/>
</svg>
