<?xml version="1.0" encoding="utf-8"?>
<!-- Generator: Adobe Illustrator 26.1.0, SVG Export Plug-In . SVG Version: 6.00 Build 0)  -->
<svg version="1.1" id="Layer_1" xmlns="http://www.w3.org/2000/svg" xmlns:xlink="http://www.w3.org/1999/xlink" x="0px" y="0px"
	 viewBox="0 0 240 60" style="enable-background:new 0 0 240 60;" xml:space="preserve">
<style type="text/css">
	
		.st0{clip-path:url(#SVGID_00000133522676466577082820000010338430189977507260_);fill:url(#SVGID_00000153663060063126396960000017393547618511393721_);}
	
		.st1{clip-path:url(#SVGID_00000071551582417934787650000008967469108919046560_);fill:url(#SVGID_00000010305989889693501880000015365267929518676104_);}
	
		.st2{clip-path:url(#SVGID_00000022551085310876120040000003428433717138505910_);fill:url(#SVGID_00000089551084568969167340000017377678760295736255_);}
	
		.st3{clip-path:url(#SVGID_00000111907709215862417040000016466999470713759154_);fill:url(#SVGID_00000133486882333033747160000006993677193134135204_);}
	
		.st4{clip-path:url(#SVGID_00000040554377712390498930000016877315188621328313_);fill:url(#SVGID_00000170236702779327396730000004662476036054368171_);}
	
		.st5{clip-path:url(#SVGID_00000160869543434882892600000013856806635668815032_);fill:url(#SVGID_00000031198905636113743160000016101069312322579082_);}
	
		.st6{clip-path:url(#SVGID_00000055702380501785669670000016227525655873893555_);fill:url(#SVGID_00000010302304528370364360000011117095801036309692_);}
	.st7{fill:#054B78;}
	.st8{fill:#004A78;}
</style>
<g>
	<g>
		<defs>
			<rect id="SVGID_1_" x="18.37" y="58.18" width="42.87" height="2.13"/>
		</defs>
		<clipPath id="SVGID_00000101095868572753104480000007920484639629580193_">
			<use xlink:href="#SVGID_1_"  style="overflow:visible;"/>
		</clipPath>
		
			<linearGradient id="SVGID_00000051377454320861184480000015250753783797244046_" gradientUnits="userSpaceOnUse" x1="-354.9912" y1="231.0309" x2="-354.4956" y2="231.0309" gradientTransform="matrix(86.5055 0 0 86.5055 30727.0645 -19926.1953)">
			<stop  offset="0" style="stop-color:#004A78"/>
			<stop  offset="0.1387" style="stop-color:#004F7C"/>
			<stop  offset="0.3612" style="stop-color:#005D89"/>
			<stop  offset="0.6398" style="stop-color:#0075A0"/>
			<stop  offset="0.9608" style="stop-color:#0095BC"/>
			<stop  offset="1" style="stop-color:#009BC1"/>
			<stop  offset="1" style="stop-color:#009BC1"/>
		</linearGradient>
		
			<rect x="18.37" y="58.18" style="clip-path:url(#SVGID_00000101095868572753104480000007920484639629580193_);fill:url(#SVGID_00000051377454320861184480000015250753783797244046_);" width="42.87" height="2.13"/>
	</g>
	<g>
		<defs>
			<path id="SVGID_00000128456789755709177010000002496482851991237560_" d="M34.27,51.31h11.56c-0.28,2.67-2.76,4.76-5.78,4.76
				C37.04,56.06,34.55,53.97,34.27,51.31 M33.26,50.32v0.5c0,3.44,3.05,6.24,6.8,6.24c3.75,0,6.8-2.8,6.8-6.24v-0.5H33.26z"/>
		</defs>
		<clipPath id="SVGID_00000080926225994361350090000016902049452685666235_">
			<use xlink:href="#SVGID_00000128456789755709177010000002496482851991237560_"  style="overflow:visible;"/>
		</clipPath>
		
			<linearGradient id="SVGID_00000116915951212997842320000011827174393160690856_" gradientUnits="userSpaceOnUse" x1="-355.5247" y1="230.6962" x2="-355.0291" y2="230.6962" gradientTransform="matrix(27.4263 0 0 -27.4263 9783.9736 6380.8208)">
			<stop  offset="0" style="stop-color:#004A78"/>
			<stop  offset="0.1387" style="stop-color:#004F7C"/>
			<stop  offset="0.3612" style="stop-color:#005D89"/>
			<stop  offset="0.6398" style="stop-color:#0075A0"/>
			<stop  offset="0.9608" style="stop-color:#0095BC"/>
			<stop  offset="1" style="stop-color:#009BC1"/>
			<stop  offset="1" style="stop-color:#009BC1"/>
		</linearGradient>
		
			<rect x="33.26" y="50.32" style="clip-path:url(#SVGID_00000080926225994361350090000016902049452685666235_);fill:url(#SVGID_00000116915951212997842320000011827174393160690856_);" width="13.59" height="6.74"/>
	</g>
	<g>
		<defs>
			<path id="SVGID_00000179642377255255643010000009753147386862184843_" d="M2.69,8.04L0,8.12L0.66,9.6
				c2,4.5,5.49,8.71,10.19,12.28c1.16,0.9,2.42,1.74,3.72,2.56c1.32,0.8,2.68,1.57,4.11,2.3c2.86,1.44,5.93,2.7,9.16,3.76
				c-3.05-1.25-5.89-2.67-8.46-4.24c-1.28-0.79-2.49-1.61-3.65-2.47c-1.13-0.86-2.21-1.75-3.2-2.67c-3.97-3.68-6.07-6.19-7.27-10.45
				l12.12,0.35c-0.38-1.08-0.73-2.2-1.03-3.38L2.69,8.04z"/>
		</defs>
		<clipPath id="SVGID_00000036247410530067402680000000630978706789835916_">
			<use xlink:href="#SVGID_00000179642377255255643010000009753147386862184843_"  style="overflow:visible;"/>
		</clipPath>
		
			<linearGradient id="SVGID_00000098929787940979193680000018183037615771494306_" gradientUnits="userSpaceOnUse" x1="-354.6659" y1="230.2839" x2="-354.1702" y2="230.2839" gradientTransform="matrix(60.826 0 0 -60.826 21572.0332 14026.3086)">
			<stop  offset="0" style="stop-color:#054B78"/>
			<stop  offset="1" style="stop-color:#054B78"/>
		</linearGradient>
		
			<rect x="0" y="7.64" style="clip-path:url(#SVGID_00000036247410530067402680000000630978706789835916_);fill:url(#SVGID_00000098929787940979193680000018183037615771494306_);" width="27.83" height="22.85"/>
	</g>
	<g>
		<defs>
			<path id="SVGID_00000008854026865172334920000002994942691962940053_" d="M62.64,11.03l11.95-0.35
				c-1.18,4.26-3.26,6.78-7.17,10.45c-0.97,0.92-2.04,1.81-3.15,2.67c-1.13,0.85-2.33,1.68-3.59,2.47
				c-2.54,1.57-5.33,2.99-8.34,4.24c3.18-1.06,6.21-2.33,9.03-3.76c1.4-0.72,2.75-1.49,4.05-2.3c1.28-0.82,2.52-1.66,3.66-2.56
				c4.63-3.57,8.07-7.78,10.04-12.28l0.65-1.48l-2.65-0.08l-13.46-0.4C63.36,8.82,63.02,9.95,62.64,11.03"/>
		</defs>
		<clipPath id="SVGID_00000168080292627074397310000002270319946977980545_">
			<use xlink:href="#SVGID_00000008854026865172334920000002994942691962940053_"  style="overflow:visible;"/>
		</clipPath>
		
			<linearGradient id="SVGID_00000078749093478222094570000004341516129993521565_" gradientUnits="userSpaceOnUse" x1="-355.5396" y1="230.2734" x2="-355.0439" y2="230.2734" gradientTransform="matrix(59.9486 0 0 -59.9486 21365.0156 13823.6484)">
			<stop  offset="0" style="stop-color:#009BC1"/>
			<stop  offset="0.0447" style="stop-color:#009BC1"/>
			<stop  offset="0.1797" style="stop-color:#009BC1"/>
			<stop  offset="1" style="stop-color:#009BC1"/>
			<stop  offset="1" style="stop-color:#009BC1"/>
		</linearGradient>
		
			<rect x="52.34" y="7.64" style="clip-path:url(#SVGID_00000168080292627074397310000002270319946977980545_);fill:url(#SVGID_00000078749093478222094570000004341516129993521565_);" width="27.43" height="22.85"/>
	</g>
	<g>
		<defs>
			<path id="SVGID_00000124123217933582556320000010509935036749919934_" d="M33.14,45.72c-0.67,0-0.67,1.04,0,1.04h13.84
				c0.67,0,0.67-1.04,0-1.04H33.14z"/>
		</defs>
		<clipPath id="SVGID_00000081630543227293495790000016129329323181227421_">
			<use xlink:href="#SVGID_00000124123217933582556320000010509935036749919934_"  style="overflow:visible;"/>
		</clipPath>
		
			<linearGradient id="SVGID_00000152254557562419039660000001611590209361039497_" gradientUnits="userSpaceOnUse" x1="-355.5112" y1="230.4305" x2="-355.0155" y2="230.4305" gradientTransform="matrix(27.9263 0 0 -27.9263 9961.2588 6481.3174)">
			<stop  offset="0" style="stop-color:#004A78"/>
			<stop  offset="0.1387" style="stop-color:#004F7C"/>
			<stop  offset="0.3612" style="stop-color:#005D89"/>
			<stop  offset="0.6398" style="stop-color:#0075A0"/>
			<stop  offset="0.9608" style="stop-color:#0095BC"/>
			<stop  offset="1" style="stop-color:#009BC1"/>
			<stop  offset="1" style="stop-color:#009BC1"/>
		</linearGradient>
		
			<rect x="32.47" y="45.72" style="clip-path:url(#SVGID_00000081630543227293495790000016129329323181227421_);fill:url(#SVGID_00000152254557562419039660000001611590209361039497_);" width="15.18" height="1.04"/>
	</g>
	<g>
		<defs>
			<path id="SVGID_00000178884319539759384730000001875247945927264130_" d="M33.53,48.01c-0.67,0-0.67,1.04,0,1.04h13.06
				c0.67,0,0.67-1.04,0-1.04H33.53z"/>
		</defs>
		<clipPath id="SVGID_00000009573779238812003970000003819958388793872812_">
			<use xlink:href="#SVGID_00000178884319539759384730000001875247945927264130_"  style="overflow:visible;"/>
		</clipPath>
		
			<linearGradient id="SVGID_00000067235027163635248010000010115852623299224733_" gradientUnits="userSpaceOnUse" x1="-355.5566" y1="230.4845" x2="-355.061" y2="230.4845" gradientTransform="matrix(26.3441 0 0 -26.3441 9400.3389 6120.4292)">
			<stop  offset="0" style="stop-color:#004A78"/>
			<stop  offset="0.1387" style="stop-color:#004F7C"/>
			<stop  offset="0.3612" style="stop-color:#005D89"/>
			<stop  offset="0.6398" style="stop-color:#0075A0"/>
			<stop  offset="0.9608" style="stop-color:#0095BC"/>
			<stop  offset="1" style="stop-color:#009BC1"/>
			<stop  offset="1" style="stop-color:#009BC1"/>
		</linearGradient>
		
			<rect x="32.85" y="48.01" style="clip-path:url(#SVGID_00000009573779238812003970000003819958388793872812_);fill:url(#SVGID_00000067235027163635248010000010115852623299224733_);" width="14.4" height="1.04"/>
	</g>
	<g>
		<defs>
			<path id="SVGID_00000071546420064443220800000000105050670159199675_" d="M28.12,0.39c-3.88,0.33-7.74,0.85-11.57,1.43L15.1,2.03
				l0.11,1.42c0.29,3.87,0.89,7.74,1.99,11.49c0.3,0.93,0.58,1.87,0.92,2.79c0.36,0.91,0.69,1.83,1.12,2.72
				c0.79,1.79,1.78,3.5,2.9,5.11c1.12,1.61,2.4,3.12,3.76,4.47l1,1.01c0.33,0.33,0.64,0.66,0.94,1c0.6,0.69,1.14,1.43,1.63,2.21
				c1.96,3.13,3.02,6.82,3.55,10.58c-0.03-3.79-0.7-7.68-2.48-11.18c-0.45-0.87-0.96-1.71-1.55-2.51c-0.29-0.4-0.61-0.79-0.92-1.16
				l-0.92-1.09c-1.23-1.42-2.32-2.89-3.27-4.46c-0.48-0.78-0.9-1.6-1.32-2.41c-0.37-0.84-0.77-1.66-1.1-2.52
				c-0.36-0.84-0.63-1.72-0.93-2.59c-0.28-0.88-0.5-1.77-0.74-2.66c-0.84-3.59-1.21-5.8-1.4-9.51c3.81-0.46,6.19-0.68,9.99-0.99
				c3.8-0.3,7.63-0.45,11.42-0.47c3.79,0.01,7.62,0.16,11.42,0.45c3.8,0.3,6.18,0.49,9.98,0.99l-0.09,1.33
				c-0.07,0.92-0.21,1.84-0.31,2.76c-0.11,0.92-0.28,1.82-0.42,2.74c-0.15,0.91-0.38,1.8-0.57,2.71c-0.24,0.89-0.47,1.78-0.74,2.66
				c-0.29,0.87-0.57,1.75-0.93,2.59c-0.32,0.86-0.72,1.68-1.09,2.52c-0.42,0.81-0.84,1.63-1.32,2.41c-0.95,1.58-2.04,3.04-3.27,4.46
				l-0.92,1.09c-0.31,0.37-0.62,0.76-0.92,1.16c-0.59,0.8-1.1,1.64-1.55,2.51c-1.78,3.5-2.46,7.39-2.49,11.18
				c0.52-3.76,1.58-7.46,3.54-10.58c0.49-0.78,1.03-1.52,1.62-2.21c0.3-0.35,0.61-0.67,0.94-1l1-1.01c1.36-1.35,2.64-2.87,3.76-4.47
				c1.12-1.61,2.11-3.32,2.9-5.11c0.43-0.89,0.76-1.8,1.12-2.72c0.34-0.92,0.62-1.85,0.92-2.78c0.24-0.94,0.53-1.88,0.73-2.84
				l0.3-1.43c0.1-0.48,0.21-0.95,0.27-1.44c0.13-0.96,0.3-1.92,0.41-2.89l0.28-2.9l0.14-1.4l-1.46-0.23
				c-3.84-0.61-7.7-1.13-11.58-1.44c-3.89-0.33-7.76-0.53-11.69-0.57C35.89-0.15,32,0.04,28.12,0.39"/>
		</defs>
		<clipPath id="SVGID_00000021099628456021661970000008906411406665198488_">
			<use xlink:href="#SVGID_00000071546420064443220800000000105050670159199675_"  style="overflow:visible;"/>
		</clipPath>
		
			<linearGradient id="SVGID_00000103257641766892481370000015266072417375256724_" gradientUnits="userSpaceOnUse" x1="-354.9576" y1="230.599" x2="-354.462" y2="230.599" gradientTransform="matrix(100.3772 0 0 -100.3772 35644.5742 23169.1855)">
			<stop  offset="0" style="stop-color:#004A78"/>
			<stop  offset="0.1387" style="stop-color:#004F7C"/>
			<stop  offset="0.3612" style="stop-color:#005D89"/>
			<stop  offset="0.6398" style="stop-color:#0075A0"/>
			<stop  offset="0.9608" style="stop-color:#0095BC"/>
			<stop  offset="1" style="stop-color:#009BC1"/>
			<stop  offset="1" style="stop-color:#009BC1"/>
		</linearGradient>
		
			<rect x="15.1" y="-0.2" style="clip-path:url(#SVGID_00000021099628456021661970000008906411406665198488_);fill:url(#SVGID_00000103257641766892481370000015266072417375256724_);" width="49.45" height="45.02"/>
	</g>
</g>
<g>
	<g>
		<path class="st7" d="M100.06,33.51l1.62-1.34c0.4,0.81,0.84,1.39,1.3,1.75c0.46,0.36,1.01,0.54,1.63,0.54
			c0.78,0,1.41-0.23,1.9-0.69c0.48-0.46,0.73-1.05,0.73-1.78c0-0.52-0.13-0.96-0.38-1.32c-0.26-0.36-0.71-0.73-1.35-1.1
			c-0.13-0.08-0.33-0.19-0.59-0.34c-1.1-0.61-1.84-1.13-2.23-1.55c-0.28-0.3-0.48-0.65-0.62-1.05c-0.14-0.4-0.21-0.83-0.21-1.29
			c0-1.3,0.42-2.35,1.25-3.17c0.83-0.82,1.92-1.22,3.27-1.22c0.91,0,1.7,0.18,2.38,0.55c0.68,0.37,1.24,0.92,1.69,1.65l-1.41,1.3
			c-0.33-0.54-0.7-0.94-1.1-1.2c-0.4-0.26-0.85-0.39-1.35-0.39c-0.73,0-1.31,0.21-1.76,0.63s-0.68,0.97-0.68,1.64
			c0,0.81,0.65,1.56,1.94,2.26c0.32,0.17,0.57,0.3,0.74,0.4c0.99,0.58,1.7,1.18,2.11,1.8c0.41,0.62,0.62,1.38,0.62,2.28
			c0,1.4-0.45,2.51-1.35,3.33c-0.9,0.82-2.12,1.23-3.67,1.23c-1.05,0-1.94-0.24-2.69-0.73C101.1,35.23,100.51,34.49,100.06,33.51z"
			/>
		<path class="st7" d="M125.44,28.54v-0.35c0-0.3,0.01-0.58,0.02-0.86c0.01-0.28,0.03-0.55,0.06-0.84
			c-0.09,0.27-0.21,0.54-0.36,0.83c-0.15,0.28-0.37,0.64-0.66,1.07l-5.32,8.25l-3.05-8.23c-0.07-0.19-0.16-0.42-0.24-0.71
			c-0.09-0.29-0.2-0.69-0.35-1.2c-0.03,0.42-0.17,1.07-0.42,1.96l-0.01,0.04l-2.22,7.56h-2.35l4.85-15.38l3.58,9.55
			c0.18,0.47,0.33,0.87,0.44,1.21c0.11,0.34,0.21,0.67,0.3,1c0.17-0.38,0.36-0.76,0.57-1.14c0.2-0.38,0.43-0.75,0.67-1.12l6.22-9.51
			l0.68,15.38h-2.29L125.44,28.54z"/>
		<path class="st7" d="M128.07,36.05l8.55-15.34l5.39,15.34h-2.4l-1.2-3.49h-5.88l-1.94,3.49H128.07z M133.47,30.59h4.31l-1.14-3.65
			c-0.05-0.17-0.11-0.41-0.17-0.7c-0.06-0.29-0.13-0.67-0.22-1.14c-0.15,0.35-0.29,0.68-0.44,0.99c-0.14,0.31-0.29,0.61-0.43,0.88
			L133.47,30.59z"/>
		<path class="st7" d="M145.07,36.05h-2.29l1.94-14.76h2.66c1.18,0,2.02,0.07,2.54,0.2c0.52,0.13,0.98,0.36,1.38,0.69
			c0.45,0.35,0.79,0.79,1.03,1.31c0.24,0.52,0.36,1.11,0.36,1.74c0,1.22-0.33,2.21-1,2.97c-0.66,0.77-1.61,1.25-2.82,1.44l4.08,6.4
			h-2.6l-3.9-6.32h-0.53L145.07,36.05z M146.14,27.85h0.46c1.45,0,2.44-0.18,2.96-0.54c0.52-0.36,0.79-0.99,0.79-1.87
			c0-0.75-0.22-1.28-0.66-1.58c-0.44-0.3-1.3-0.45-2.57-0.45h-0.37L146.14,27.85z"/>
		<path class="st7" d="M156.28,36.05l1.67-12.63h-3.98l0.28-2.13h10.08l-0.29,2.13h-3.76l-1.67,12.63H156.28z"/>
	</g>
	<g>
		<path class="st7" d="M171.79,30.97c0.62,0.66,1.21,1.15,1.77,1.45c0.56,0.3,1.14,0.45,1.74,0.45c0.5,0,0.89-0.12,1.19-0.36
			c0.3-0.24,0.44-0.56,0.44-0.96c0-0.54-0.6-1.12-1.79-1.74c-0.11-0.06-0.21-0.11-0.27-0.14c-1.16-0.6-1.96-1.19-2.39-1.74
			c-0.43-0.56-0.65-1.24-0.65-2.04c0-1.46,0.49-2.65,1.48-3.58c0.98-0.93,2.25-1.39,3.8-1.39c0.82,0,1.61,0.14,2.36,0.43
			c0.76,0.29,1.47,0.72,2.14,1.28l-1.69,2.91c-0.53-0.46-1.01-0.8-1.45-1.02c-0.44-0.22-0.84-0.33-1.21-0.33
			c-0.4,0-0.74,0.12-1.01,0.35c-0.27,0.23-0.4,0.52-0.4,0.85c0,0.42,0.5,0.88,1.51,1.4c0.36,0.18,0.63,0.33,0.83,0.44
			c1.03,0.57,1.75,1.15,2.16,1.75c0.4,0.59,0.6,1.34,0.6,2.23c0,1.58-0.55,2.84-1.64,3.78c-1.1,0.94-2.58,1.42-4.46,1.42
			c-0.99,0-1.91-0.21-2.77-0.63c-0.86-0.42-1.64-1.04-2.33-1.87L171.79,30.97z"/>
		<path class="st7" d="M182.33,36.05l2.35-14.76h4.05c1.12,0,1.97,0.05,2.53,0.14c0.56,0.09,1.06,0.24,1.47,0.46
			c0.75,0.38,1.31,0.91,1.69,1.57c0.37,0.66,0.56,1.46,0.56,2.39c0,0.92-0.2,1.77-0.6,2.56c-0.4,0.79-0.94,1.39-1.63,1.81
			c-0.4,0.25-0.88,0.42-1.43,0.53c-0.55,0.1-1.41,0.16-2.59,0.16h-0.6h-1.05l-0.83,5.14H182.33z M187.57,27.77h0.37
			c1.28,0,2.14-0.13,2.59-0.4c0.45-0.27,0.68-0.73,0.68-1.37c0-0.54-0.19-0.94-0.58-1.19c-0.39-0.25-0.99-0.38-1.82-0.38h-0.71
			L187.57,27.77z"/>
		<path class="st7" d="M203.52,36.44c-1.06,0-2.01-0.14-2.88-0.43c-0.86-0.29-1.63-0.72-2.3-1.3c-0.71-0.62-1.26-1.38-1.65-2.29
			c-0.4-0.91-0.59-1.87-0.59-2.89c0-1.1,0.17-2.13,0.51-3.09c0.34-0.96,0.84-1.83,1.52-2.61c0.79-0.93,1.75-1.64,2.88-2.13
			c1.13-0.49,2.36-0.74,3.68-0.74c2.22,0,4.01,0.64,5.38,1.92c1.37,1.28,2.05,2.94,2.05,4.98c0,1.1-0.17,2.12-0.52,3.09
			s-0.85,1.83-1.52,2.61c-0.81,0.95-1.77,1.67-2.88,2.16C206.08,36.19,204.86,36.44,203.52,36.44z M204.43,24.57
			c-1.2,0-2.21,0.43-3.02,1.3c-0.81,0.87-1.22,1.94-1.22,3.23c0,1.14,0.32,2.04,0.97,2.72c0.65,0.68,1.51,1.02,2.6,1.02
			c1.18,0,2.19-0.45,3.01-1.35c0.83-0.9,1.24-1.99,1.24-3.28c0-1.06-0.34-1.93-1.01-2.62C206.33,24.91,205.47,24.57,204.43,24.57z"
			/>
		<path class="st7" d="M217.31,36.05h-3.92l2.33-14.76h3.93c1.18,0,2.06,0.04,2.64,0.13c0.58,0.08,1.08,0.23,1.5,0.43
			c0.75,0.35,1.31,0.84,1.69,1.48c0.38,0.63,0.57,1.4,0.57,2.28c0,1.22-0.36,2.25-1.09,3.07c-0.73,0.82-1.73,1.34-3.01,1.55
			l3.59,5.83h-4.49l-2.85-5.63L217.31,36.05z M218.57,28.03h1.24c0.78,0,1.38-0.18,1.79-0.53c0.42-0.36,0.62-0.87,0.62-1.54
			c0-0.63-0.19-1.09-0.58-1.38c-0.39-0.29-1.01-0.43-1.87-0.43h-0.58L218.57,28.03z"/>
		<path class="st7" d="M229.1,36.05l1.79-11.33h-3.31l0.56-3.43h10.42l-0.56,3.43h-3.15l-1.79,11.33H229.1z"/>
	</g>
	<rect x="90.02" y="-0.25" class="st8" width="0.5" height="60.67"/>
	<g>
		<path class="st7" d="M171.5,42.67c-0.29-0.26-0.58-0.45-0.86-0.58c-0.29-0.12-0.59-0.19-0.9-0.19c-0.34,0-0.66,0.06-0.95,0.18
			c-0.3,0.12-0.56,0.3-0.78,0.54c-0.25,0.27-0.45,0.58-0.58,0.92c-0.13,0.34-0.2,0.71-0.2,1.09c0,0.74,0.2,1.32,0.61,1.75
			c0.41,0.43,0.96,0.64,1.66,0.64c0.27,0,0.54-0.05,0.81-0.14c0.27-0.09,0.56-0.24,0.86-0.44L171,47.31
			c-0.25,0.13-0.5,0.23-0.77,0.29c-0.27,0.06-0.55,0.1-0.85,0.1c-0.86,0-1.57-0.28-2.11-0.84c-0.54-0.56-0.81-1.28-0.81-2.17
			c0-0.49,0.09-0.96,0.26-1.39c0.17-0.44,0.43-0.82,0.75-1.14c0.29-0.29,0.63-0.52,1.02-0.67c0.38-0.15,0.8-0.23,1.24-0.23
			c0.38,0,0.73,0.05,1.06,0.17c0.32,0.11,0.63,0.28,0.91,0.51L171.5,42.67z"/>
		<path class="st7" d="M175.68,41.25c0.93,0,1.67,0.27,2.23,0.82c0.56,0.54,0.84,1.27,0.84,2.18c0,0.49-0.09,0.95-0.27,1.38
			c-0.18,0.43-0.44,0.81-0.78,1.13c-0.32,0.3-0.69,0.54-1.11,0.7c-0.43,0.16-0.88,0.25-1.36,0.25c-0.89,0-1.61-0.28-2.16-0.83
			c-0.55-0.55-0.82-1.28-0.82-2.17c0-0.5,0.09-0.97,0.27-1.4c0.18-0.44,0.43-0.82,0.76-1.13c0.31-0.3,0.67-0.52,1.09-0.68
			C174.77,41.33,175.21,41.25,175.68,41.25z M178,44.24c0-0.7-0.22-1.26-0.65-1.69c-0.43-0.43-1-0.65-1.71-0.65
			c-0.35,0-0.69,0.06-1,0.19c-0.32,0.13-0.59,0.31-0.83,0.55c-0.27,0.27-0.48,0.59-0.62,0.94c-0.14,0.35-0.22,0.72-0.22,1.1
			c0,0.7,0.21,1.26,0.64,1.69c0.43,0.43,0.99,0.64,1.69,0.64c0.36,0,0.7-0.06,1.02-0.19c0.32-0.13,0.61-0.32,0.86-0.56
			c0.26-0.26,0.46-0.57,0.61-0.92C177.93,45,178,44.63,178,44.24z"/>
		<path class="st7" d="M179.48,47.53l0.82-6.38l3.67,4.81l0.61-4.57h0.73l-0.84,6.4l-3.65-4.76l-0.61,4.51H179.48z"/>
		<path class="st7" d="M185.59,46.41l0.54-0.46c0.17,0.39,0.35,0.67,0.56,0.84c0.2,0.17,0.45,0.25,0.74,0.25
			c0.37,0,0.67-0.11,0.89-0.32c0.22-0.22,0.34-0.5,0.34-0.86c0-0.22-0.05-0.41-0.16-0.56s-0.37-0.34-0.8-0.57
			c-0.55-0.3-0.92-0.57-1.1-0.81c-0.19-0.24-0.28-0.54-0.28-0.88c0-0.53,0.17-0.96,0.51-1.29c0.34-0.34,0.78-0.5,1.31-0.5
			c0.36,0,0.67,0.08,0.93,0.23c0.27,0.16,0.5,0.4,0.71,0.72l-0.53,0.46c-0.13-0.26-0.29-0.45-0.47-0.58
			c-0.18-0.13-0.39-0.19-0.62-0.19c-0.32,0-0.59,0.1-0.79,0.29s-0.3,0.44-0.3,0.75c0,0.41,0.31,0.78,0.94,1.11
			c0.11,0.06,0.19,0.1,0.25,0.13c0.44,0.25,0.74,0.5,0.9,0.74c0.16,0.25,0.25,0.56,0.25,0.93c0,0.57-0.18,1.02-0.52,1.35
			c-0.35,0.33-0.83,0.5-1.43,0.5c-0.44,0-0.82-0.11-1.13-0.33C186,47.16,185.76,46.83,185.59,46.41z"/>
		<path class="st7" d="M191.05,41.39h0.75l-0.49,3.74c-0.02,0.13-0.03,0.25-0.04,0.34c-0.01,0.09-0.01,0.16-0.01,0.21
			c0,0.44,0.12,0.78,0.35,1.01c0.23,0.23,0.57,0.35,1.01,0.35c0.31,0,0.58-0.05,0.82-0.16c0.24-0.11,0.43-0.26,0.59-0.47
			c0.2-0.28,0.36-0.8,0.46-1.56c0.01-0.07,0.02-0.12,0.02-0.16l0.44-3.3h0.74l-0.46,3.46v0c-0.13,0.97-0.33,1.63-0.63,2
			c-0.22,0.28-0.51,0.5-0.86,0.65c-0.35,0.15-0.74,0.22-1.18,0.22c-0.62,0-1.12-0.16-1.49-0.47c-0.37-0.32-0.55-0.74-0.55-1.27
			c0-0.2,0.01-0.45,0.04-0.74c0.03-0.29,0.07-0.63,0.12-1.04L191.05,41.39z"/>
		<path class="st7" d="M196.26,47.54l0.81-6.15h0.74l-0.72,5.47h2.21l-0.09,0.68H196.26z"/>
		<path class="st7" d="M200.97,47.54l0.71-5.48h-1.55l0.08-0.67h3.87l-0.09,0.67h-1.56l-0.73,5.48H200.97z"/>
		<path class="st7" d="M204.24,47.54l0.81-6.15h0.77l-0.81,6.15H204.24z"/>
		<path class="st7" d="M206.48,47.53l0.82-6.38l3.67,4.81l0.61-4.57h0.73l-0.84,6.4l-3.65-4.76l-0.61,4.51H206.48z"/>
		<path class="st7" d="M216.53,44.53h2.6v0.04c0,0.97-0.28,1.73-0.83,2.29c-0.55,0.56-1.3,0.84-2.25,0.84
			c-0.91,0-1.64-0.27-2.18-0.82c-0.54-0.54-0.81-1.27-0.81-2.18c0-0.5,0.09-0.96,0.27-1.4c0.18-0.44,0.44-0.82,0.77-1.14
			c0.32-0.3,0.67-0.53,1.07-0.69c0.4-0.16,0.83-0.23,1.28-0.23c0.58,0,1.08,0.1,1.51,0.3c0.43,0.2,0.81,0.52,1.15,0.94l-0.55,0.49
			c-0.29-0.37-0.6-0.64-0.95-0.81c-0.34-0.17-0.73-0.26-1.16-0.26c-0.77,0-1.4,0.27-1.9,0.8c-0.5,0.53-0.75,1.21-0.75,2.03
			c0,0.7,0.21,1.26,0.64,1.68c0.43,0.42,0.99,0.63,1.7,0.63c0.59,0,1.09-0.18,1.51-0.53c0.42-0.36,0.66-0.81,0.72-1.36h-1.93
			L216.53,44.53z"/>
		<path class="st7" d="M222.39,47.54l0.81-6.15h0.77l-0.81,6.15H222.39z"/>
		<path class="st7" d="M224.63,47.53l0.82-6.38l3.67,4.81l0.61-4.57h0.73l-0.84,6.4l-3.65-4.76l-0.61,4.51H224.63z"/>
		<path class="st7" d="M236.25,42.67c-0.29-0.26-0.58-0.45-0.86-0.58c-0.29-0.12-0.59-0.19-0.9-0.19c-0.34,0-0.66,0.06-0.95,0.18
			c-0.3,0.12-0.56,0.3-0.78,0.54c-0.25,0.27-0.45,0.58-0.58,0.92c-0.13,0.34-0.2,0.71-0.2,1.09c0,0.74,0.2,1.32,0.61,1.75
			c0.41,0.43,0.96,0.64,1.66,0.64c0.27,0,0.54-0.05,0.81-0.14c0.27-0.09,0.56-0.24,0.86-0.44l-0.16,0.86
			c-0.25,0.13-0.5,0.23-0.77,0.29c-0.27,0.06-0.55,0.1-0.85,0.1c-0.86,0-1.57-0.28-2.11-0.84c-0.54-0.56-0.81-1.28-0.81-2.17
			c0-0.49,0.09-0.96,0.26-1.39c0.17-0.44,0.43-0.82,0.75-1.14c0.29-0.29,0.63-0.52,1.02-0.67c0.38-0.15,0.8-0.23,1.24-0.23
			c0.38,0,0.73,0.05,1.06,0.17c0.32,0.11,0.63,0.28,0.91,0.51L236.25,42.67z"/>
		<path class="st7" d="M236.94,47.14c0-0.13,0.05-0.25,0.14-0.34c0.09-0.09,0.21-0.14,0.34-0.14c0.13,0,0.25,0.05,0.34,0.14
			c0.09,0.09,0.14,0.21,0.14,0.34c0,0.13-0.05,0.25-0.14,0.34c-0.09,0.09-0.21,0.13-0.34,0.13c-0.14,0-0.25-0.05-0.34-0.13
			C236.99,47.39,236.94,47.28,236.94,47.14z"/>
	</g>
</g>
</svg>
