<?xml version="1.0" encoding="utf-8"?>
<!-- Generator: Adobe Illustrator 26.2.1, SVG Export Plug-In . SVG Version: 6.00 Build 0)  -->
<svg version="1.1" id="Layer_1" xmlns="http://www.w3.org/2000/svg" xmlns:xlink="http://www.w3.org/1999/xlink" x="0px" y="0px"
	 viewBox="0 0 60 60" style="enable-background:new 0 0 60 60;" xml:space="preserve">
<style type="text/css">
	.st0{fill:#054B78;}
	.st1{fill:#CA2027;}
</style>
<g>
	<path class="st0" d="M41.88,23.91c0.01,0.26,0.02,0.52,0.02,0.79c0,8.1-6.17,17.44-17.44,17.44c-3.47,0-6.68-1.01-9.4-2.75
		c0.48,0.05,0.97,0.08,1.46,0.08c2.87,0,5.51-0.98,7.61-2.62c-2.68-0.05-4.95-1.82-5.73-4.26c0.37,0.07,0.76,0.11,1.15,0.11
		c0.56,0,1.1-0.08,1.61-0.22c-2.8-0.57-4.92-3.04-4.92-6.01V26.4c0.83,0.46,1.77,0.73,2.78,0.77c-1.65-1.1-2.73-2.98-2.73-5.1
		c0-1.13,0.3-2.18,0.83-3.08c3.02,3.71,7.54,6.15,12.64,6.41c-0.1-0.45-0.16-0.92-0.16-1.4c0-3.39,2.74-6.13,6.13-6.13
		c1.76,0,3.36,0.74,4.47,1.93c1.4-0.27,2.71-0.78,3.9-1.49c-0.46,1.44-1.43,2.63-2.7,3.39c1.24-0.15,2.42-0.48,3.52-0.96
		C44.12,21.96,43.08,23.04,41.88,23.91 M30,0.11C13.5,0.11,0.12,13.5,0.12,30C0.12,46.51,13.5,59.89,30,59.89S59.88,46.51,59.88,30
		C59.88,13.5,46.5,0.11,30,0.11"/>
	<path class="st1" d="M27.7,27.8v-0.06c-0.01,0.02-0.03,0.04-0.04,0.06H27.7z"/>
</g>
</svg>
